<mxfile host="65bd71144e">
    <diagram id="N_jNqKJxH27HeRxxcWi2" name="Page-1">
        <mxGraphModel dx="687" dy="424" grid="1" gridSize="10" guides="1" tooltips="1" connect="1" arrows="1" fold="1" page="1" pageScale="1" pageWidth="827" pageHeight="1169" math="0" shadow="0">
            <root>
                <mxCell id="0"/>
                <mxCell id="1" parent="0"/>
                <mxCell id="2" value="users" style="shape=table;startSize=30;container=1;collapsible=1;childLayout=tableLayout;fixedRows=1;rowLines=0;fontStyle=1;align=center;resizeLast=1;" parent="1" vertex="1">
                    <mxGeometry x="30" y="20" width="170" height="210" as="geometry"/>
                </mxCell>
                <mxCell id="3" value="" style="shape=tableRow;horizontal=0;startSize=0;swimlaneHead=0;swimlaneBody=0;fillColor=none;collapsible=0;dropTarget=0;points=[[0,0.5],[1,0.5]];portConstraint=eastwest;top=0;left=0;right=0;bottom=1;" parent="2" vertex="1">
                    <mxGeometry y="30" width="170" height="30" as="geometry"/>
                </mxCell>
                <mxCell id="4" value="PK" style="shape=partialRectangle;connectable=0;fillColor=none;top=0;left=0;bottom=0;right=0;fontStyle=1;overflow=hidden;" parent="3" vertex="1">
                    <mxGeometry width="30" height="30" as="geometry">
                        <mxRectangle width="30" height="30" as="alternateBounds"/>
                    </mxGeometry>
                </mxCell>
                <mxCell id="5" value="id BIGINT" style="shape=partialRectangle;connectable=0;fillColor=none;top=0;left=0;bottom=0;right=0;align=left;spacingLeft=6;fontStyle=5;overflow=hidden;" parent="3" vertex="1">
                    <mxGeometry x="30" width="140" height="30" as="geometry">
                        <mxRectangle width="140" height="30" as="alternateBounds"/>
                    </mxGeometry>
                </mxCell>
                <mxCell id="6" value="" style="shape=tableRow;horizontal=0;startSize=0;swimlaneHead=0;swimlaneBody=0;fillColor=none;collapsible=0;dropTarget=0;points=[[0,0.5],[1,0.5]];portConstraint=eastwest;top=0;left=0;right=0;bottom=0;" parent="2" vertex="1">
                    <mxGeometry y="60" width="170" height="30" as="geometry"/>
                </mxCell>
                <mxCell id="7" value="" style="shape=partialRectangle;connectable=0;fillColor=none;top=0;left=0;bottom=0;right=0;editable=1;overflow=hidden;" parent="6" vertex="1">
                    <mxGeometry width="30" height="30" as="geometry">
                        <mxRectangle width="30" height="30" as="alternateBounds"/>
                    </mxGeometry>
                </mxCell>
                <mxCell id="8" value="name VARCHAR(255)" style="shape=partialRectangle;connectable=0;fillColor=none;top=0;left=0;bottom=0;right=0;align=left;spacingLeft=6;overflow=hidden;" parent="6" vertex="1">
                    <mxGeometry x="30" width="140" height="30" as="geometry">
                        <mxRectangle width="140" height="30" as="alternateBounds"/>
                    </mxGeometry>
                </mxCell>
                <mxCell id="9" value="" style="shape=tableRow;horizontal=0;startSize=0;swimlaneHead=0;swimlaneBody=0;fillColor=none;collapsible=0;dropTarget=0;points=[[0,0.5],[1,0.5]];portConstraint=eastwest;top=0;left=0;right=0;bottom=0;" parent="2" vertex="1">
                    <mxGeometry y="90" width="170" height="30" as="geometry"/>
                </mxCell>
                <mxCell id="10" value="" style="shape=partialRectangle;connectable=0;fillColor=none;top=0;left=0;bottom=0;right=0;editable=1;overflow=hidden;" parent="9" vertex="1">
                    <mxGeometry width="30" height="30" as="geometry">
                        <mxRectangle width="30" height="30" as="alternateBounds"/>
                    </mxGeometry>
                </mxCell>
                <mxCell id="11" value="email VARCHAR(255)" style="shape=partialRectangle;connectable=0;fillColor=none;top=0;left=0;bottom=0;right=0;align=left;spacingLeft=6;overflow=hidden;" parent="9" vertex="1">
                    <mxGeometry x="30" width="140" height="30" as="geometry">
                        <mxRectangle width="140" height="30" as="alternateBounds"/>
                    </mxGeometry>
                </mxCell>
                <mxCell id="12" value="" style="shape=tableRow;horizontal=0;startSize=0;swimlaneHead=0;swimlaneBody=0;fillColor=none;collapsible=0;dropTarget=0;points=[[0,0.5],[1,0.5]];portConstraint=eastwest;top=0;left=0;right=0;bottom=0;" parent="2" vertex="1">
                    <mxGeometry y="120" width="170" height="30" as="geometry"/>
                </mxCell>
                <mxCell id="13" value="" style="shape=partialRectangle;connectable=0;fillColor=none;top=0;left=0;bottom=0;right=0;editable=1;overflow=hidden;" parent="12" vertex="1">
                    <mxGeometry width="30" height="30" as="geometry">
                        <mxRectangle width="30" height="30" as="alternateBounds"/>
                    </mxGeometry>
                </mxCell>
                <mxCell id="14" value="password VARCHAR(255)" style="shape=partialRectangle;connectable=0;fillColor=none;top=0;left=0;bottom=0;right=0;align=left;spacingLeft=6;overflow=hidden;" parent="12" vertex="1">
                    <mxGeometry x="30" width="140" height="30" as="geometry">
                        <mxRectangle width="140" height="30" as="alternateBounds"/>
                    </mxGeometry>
                </mxCell>
                <mxCell id="15" value="" style="shape=tableRow;horizontal=0;startSize=0;swimlaneHead=0;swimlaneBody=0;fillColor=none;collapsible=0;dropTarget=0;points=[[0,0.5],[1,0.5]];portConstraint=eastwest;top=0;left=0;right=0;bottom=0;" parent="2" vertex="1">
                    <mxGeometry y="150" width="170" height="30" as="geometry"/>
                </mxCell>
                <mxCell id="16" value="" style="shape=partialRectangle;connectable=0;fillColor=none;top=0;left=0;bottom=0;right=0;editable=1;overflow=hidden;" parent="15" vertex="1">
                    <mxGeometry width="30" height="30" as="geometry">
                        <mxRectangle width="30" height="30" as="alternateBounds"/>
                    </mxGeometry>
                </mxCell>
                <mxCell id="17" value="created_at TIMESTAMP" style="shape=partialRectangle;connectable=0;fillColor=none;top=0;left=0;bottom=0;right=0;align=left;spacingLeft=6;overflow=hidden;" parent="15" vertex="1">
                    <mxGeometry x="30" width="140" height="30" as="geometry">
                        <mxRectangle width="140" height="30" as="alternateBounds"/>
                    </mxGeometry>
                </mxCell>
                <mxCell id="18" value="" style="shape=tableRow;horizontal=0;startSize=0;swimlaneHead=0;swimlaneBody=0;fillColor=none;collapsible=0;dropTarget=0;points=[[0,0.5],[1,0.5]];portConstraint=eastwest;top=0;left=0;right=0;bottom=0;" parent="2" vertex="1">
                    <mxGeometry y="180" width="170" height="30" as="geometry"/>
                </mxCell>
                <mxCell id="19" value="" style="shape=partialRectangle;connectable=0;fillColor=none;top=0;left=0;bottom=0;right=0;editable=1;overflow=hidden;" parent="18" vertex="1">
                    <mxGeometry width="30" height="30" as="geometry">
                        <mxRectangle width="30" height="30" as="alternateBounds"/>
                    </mxGeometry>
                </mxCell>
                <mxCell id="20" value="updated_at TIMESTAMP" style="shape=partialRectangle;connectable=0;fillColor=none;top=0;left=0;bottom=0;right=0;align=left;spacingLeft=6;overflow=hidden;" parent="18" vertex="1">
                    <mxGeometry x="30" width="140" height="30" as="geometry">
                        <mxRectangle width="140" height="30" as="alternateBounds"/>
                    </mxGeometry>
                </mxCell>
                <mxCell id="21" value="episode_reviews" style="shape=table;startSize=30;container=1;collapsible=1;childLayout=tableLayout;fixedRows=1;rowLines=0;fontStyle=1;align=center;resizeLast=1;" parent="1" vertex="1">
                    <mxGeometry x="320" y="20" width="170" height="270" as="geometry"/>
                </mxCell>
                <mxCell id="22" value="" style="shape=tableRow;horizontal=0;startSize=0;swimlaneHead=0;swimlaneBody=0;fillColor=none;collapsible=0;dropTarget=0;points=[[0,0.5],[1,0.5]];portConstraint=eastwest;top=0;left=0;right=0;bottom=1;" parent="21" vertex="1">
                    <mxGeometry y="30" width="170" height="30" as="geometry"/>
                </mxCell>
                <mxCell id="23" value="PK" style="shape=partialRectangle;connectable=0;fillColor=none;top=0;left=0;bottom=0;right=0;fontStyle=1;overflow=hidden;" parent="22" vertex="1">
                    <mxGeometry width="30" height="30" as="geometry">
                        <mxRectangle width="30" height="30" as="alternateBounds"/>
                    </mxGeometry>
                </mxCell>
                <mxCell id="24" value="id BIGINT" style="shape=partialRectangle;connectable=0;fillColor=none;top=0;left=0;bottom=0;right=0;align=left;spacingLeft=6;fontStyle=5;overflow=hidden;" parent="22" vertex="1">
                    <mxGeometry x="30" width="140" height="30" as="geometry">
                        <mxRectangle width="140" height="30" as="alternateBounds"/>
                    </mxGeometry>
                </mxCell>
                <mxCell id="25" value="" style="shape=tableRow;horizontal=0;startSize=0;swimlaneHead=0;swimlaneBody=0;fillColor=none;collapsible=0;dropTarget=0;points=[[0,0.5],[1,0.5]];portConstraint=eastwest;top=0;left=0;right=0;bottom=0;" parent="21" vertex="1">
                    <mxGeometry y="60" width="170" height="30" as="geometry"/>
                </mxCell>
                <mxCell id="26" value="" style="shape=partialRectangle;connectable=0;fillColor=none;top=0;left=0;bottom=0;right=0;editable=1;overflow=hidden;" parent="25" vertex="1">
                    <mxGeometry width="30" height="30" as="geometry">
                        <mxRectangle width="30" height="30" as="alternateBounds"/>
                    </mxGeometry>
                </mxCell>
                <mxCell id="27" value="review TEXT" style="shape=partialRectangle;connectable=0;fillColor=none;top=0;left=0;bottom=0;right=0;align=left;spacingLeft=6;overflow=hidden;" parent="25" vertex="1">
                    <mxGeometry x="30" width="140" height="30" as="geometry">
                        <mxRectangle width="140" height="30" as="alternateBounds"/>
                    </mxGeometry>
                </mxCell>
                <mxCell id="44" value="" style="shape=tableRow;horizontal=0;startSize=0;swimlaneHead=0;swimlaneBody=0;fillColor=none;collapsible=0;dropTarget=0;points=[[0,0.5],[1,0.5]];portConstraint=eastwest;top=0;left=0;right=0;bottom=0;" parent="21" vertex="1">
                    <mxGeometry y="90" width="170" height="30" as="geometry"/>
                </mxCell>
                <mxCell id="45" value="" style="shape=partialRectangle;connectable=0;fillColor=none;top=0;left=0;bottom=0;right=0;editable=1;overflow=hidden;" parent="44" vertex="1">
                    <mxGeometry width="30" height="30" as="geometry">
                        <mxRectangle width="30" height="30" as="alternateBounds"/>
                    </mxGeometry>
                </mxCell>
                <mxCell id="46" value="episode_id BIGINT" style="shape=partialRectangle;connectable=0;fillColor=none;top=0;left=0;bottom=0;right=0;align=left;spacingLeft=6;overflow=hidden;" parent="44" vertex="1">
                    <mxGeometry x="30" width="140" height="30" as="geometry">
                        <mxRectangle width="140" height="30" as="alternateBounds"/>
                    </mxGeometry>
                </mxCell>
                <mxCell id="28" value="" style="shape=tableRow;horizontal=0;startSize=0;swimlaneHead=0;swimlaneBody=0;fillColor=none;collapsible=0;dropTarget=0;points=[[0,0.5],[1,0.5]];portConstraint=eastwest;top=0;left=0;right=0;bottom=0;" parent="21" vertex="1">
                    <mxGeometry y="120" width="170" height="30" as="geometry"/>
                </mxCell>
                <mxCell id="29" value="" style="shape=partialRectangle;connectable=0;fillColor=none;top=0;left=0;bottom=0;right=0;editable=1;overflow=hidden;" parent="28" vertex="1">
                    <mxGeometry width="30" height="30" as="geometry">
                        <mxRectangle width="30" height="30" as="alternateBounds"/>
                    </mxGeometry>
                </mxCell>
                <mxCell id="30" value="ratings " style="shape=partialRectangle;connectable=0;fillColor=none;top=0;left=0;bottom=0;right=0;align=left;spacingLeft=6;overflow=hidden;" parent="28" vertex="1">
                    <mxGeometry x="30" width="140" height="30" as="geometry">
                        <mxRectangle width="140" height="30" as="alternateBounds"/>
                    </mxGeometry>
                </mxCell>
                <mxCell id="31" value="" style="shape=tableRow;horizontal=0;startSize=0;swimlaneHead=0;swimlaneBody=0;fillColor=none;collapsible=0;dropTarget=0;points=[[0,0.5],[1,0.5]];portConstraint=eastwest;top=0;left=0;right=0;bottom=0;" parent="21" vertex="1">
                    <mxGeometry y="150" width="170" height="30" as="geometry"/>
                </mxCell>
                <mxCell id="32" value="FK" style="shape=partialRectangle;connectable=0;fillColor=none;top=0;left=0;bottom=0;right=0;editable=1;overflow=hidden;" parent="31" vertex="1">
                    <mxGeometry width="30" height="30" as="geometry">
                        <mxRectangle width="30" height="30" as="alternateBounds"/>
                    </mxGeometry>
                </mxCell>
                <mxCell id="33" value="user_id BIGINT" style="shape=partialRectangle;connectable=0;fillColor=none;top=0;left=0;bottom=0;right=0;align=left;spacingLeft=6;overflow=hidden;" parent="31" vertex="1">
                    <mxGeometry x="30" width="140" height="30" as="geometry">
                        <mxRectangle width="140" height="30" as="alternateBounds"/>
                    </mxGeometry>
                </mxCell>
                <mxCell id="47" value="" style="shape=tableRow;horizontal=0;startSize=0;swimlaneHead=0;swimlaneBody=0;fillColor=none;collapsible=0;dropTarget=0;points=[[0,0.5],[1,0.5]];portConstraint=eastwest;top=0;left=0;right=0;bottom=0;" parent="21" vertex="1">
                    <mxGeometry y="180" width="170" height="30" as="geometry"/>
                </mxCell>
                <mxCell id="48" value="" style="shape=partialRectangle;connectable=0;fillColor=none;top=0;left=0;bottom=0;right=0;editable=1;overflow=hidden;" parent="47" vertex="1">
                    <mxGeometry width="30" height="30" as="geometry">
                        <mxRectangle width="30" height="30" as="alternateBounds"/>
                    </mxGeometry>
                </mxCell>
                <mxCell id="49" value="status  ENUM" style="shape=partialRectangle;connectable=0;fillColor=none;top=0;left=0;bottom=0;right=0;align=left;spacingLeft=6;overflow=hidden;" parent="47" vertex="1">
                    <mxGeometry x="30" width="140" height="30" as="geometry">
                        <mxRectangle width="140" height="30" as="alternateBounds"/>
                    </mxGeometry>
                </mxCell>
                <mxCell id="34" value="" style="shape=tableRow;horizontal=0;startSize=0;swimlaneHead=0;swimlaneBody=0;fillColor=none;collapsible=0;dropTarget=0;points=[[0,0.5],[1,0.5]];portConstraint=eastwest;top=0;left=0;right=0;bottom=0;" parent="21" vertex="1">
                    <mxGeometry y="210" width="170" height="30" as="geometry"/>
                </mxCell>
                <mxCell id="35" value="" style="shape=partialRectangle;connectable=0;fillColor=none;top=0;left=0;bottom=0;right=0;editable=1;overflow=hidden;" parent="34" vertex="1">
                    <mxGeometry width="30" height="30" as="geometry">
                        <mxRectangle width="30" height="30" as="alternateBounds"/>
                    </mxGeometry>
                </mxCell>
                <mxCell id="36" value="created_at TIMESTAMP" style="shape=partialRectangle;connectable=0;fillColor=none;top=0;left=0;bottom=0;right=0;align=left;spacingLeft=6;overflow=hidden;" parent="34" vertex="1">
                    <mxGeometry x="30" width="140" height="30" as="geometry">
                        <mxRectangle width="140" height="30" as="alternateBounds"/>
                    </mxGeometry>
                </mxCell>
                <mxCell id="37" value="" style="shape=tableRow;horizontal=0;startSize=0;swimlaneHead=0;swimlaneBody=0;fillColor=none;collapsible=0;dropTarget=0;points=[[0,0.5],[1,0.5]];portConstraint=eastwest;top=0;left=0;right=0;bottom=0;" parent="21" vertex="1">
                    <mxGeometry y="240" width="170" height="30" as="geometry"/>
                </mxCell>
                <mxCell id="38" value="" style="shape=partialRectangle;connectable=0;fillColor=none;top=0;left=0;bottom=0;right=0;editable=1;overflow=hidden;" parent="37" vertex="1">
                    <mxGeometry width="30" height="30" as="geometry">
                        <mxRectangle width="30" height="30" as="alternateBounds"/>
                    </mxGeometry>
                </mxCell>
                <mxCell id="39" value="updated_at TIMESTAMP" style="shape=partialRectangle;connectable=0;fillColor=none;top=0;left=0;bottom=0;right=0;align=left;spacingLeft=6;overflow=hidden;" parent="37" vertex="1">
                    <mxGeometry x="30" width="140" height="30" as="geometry">
                        <mxRectangle width="140" height="30" as="alternateBounds"/>
                    </mxGeometry>
                </mxCell>
                <mxCell id="43" value="" style="edgeStyle=entityRelationEdgeStyle;fontSize=12;html=1;endArrow=ERoneToMany;exitX=1;exitY=0.5;exitDx=0;exitDy=0;entryX=0;entryY=0.5;entryDx=0;entryDy=0;" parent="1" source="3" target="31" edge="1">
                    <mxGeometry width="100" height="100" relative="1" as="geometry">
                        <mxPoint x="250" y="180" as="sourcePoint"/>
                        <mxPoint x="350" y="80" as="targetPoint"/>
                    </mxGeometry>
                </mxCell>
                <mxCell id="50" value="episode_review_counters" style="shape=table;startSize=30;container=1;collapsible=1;childLayout=tableLayout;fixedRows=1;rowLines=0;fontStyle=1;align=center;resizeLast=1;" parent="1" vertex="1">
                    <mxGeometry x="600" y="30" width="210" height="210" as="geometry"/>
                </mxCell>
                <mxCell id="51" value="" style="shape=tableRow;horizontal=0;startSize=0;swimlaneHead=0;swimlaneBody=0;fillColor=none;collapsible=0;dropTarget=0;points=[[0,0.5],[1,0.5]];portConstraint=eastwest;top=0;left=0;right=0;bottom=1;" parent="50" vertex="1">
                    <mxGeometry y="30" width="210" height="30" as="geometry"/>
                </mxCell>
                <mxCell id="52" value="PK" style="shape=partialRectangle;connectable=0;fillColor=none;top=0;left=0;bottom=0;right=0;fontStyle=1;overflow=hidden;" parent="51" vertex="1">
                    <mxGeometry width="30" height="30" as="geometry">
                        <mxRectangle width="30" height="30" as="alternateBounds"/>
                    </mxGeometry>
                </mxCell>
                <mxCell id="53" value="id BIGINT" style="shape=partialRectangle;connectable=0;fillColor=none;top=0;left=0;bottom=0;right=0;align=left;spacingLeft=6;fontStyle=5;overflow=hidden;" parent="51" vertex="1">
                    <mxGeometry x="30" width="180" height="30" as="geometry">
                        <mxRectangle width="180" height="30" as="alternateBounds"/>
                    </mxGeometry>
                </mxCell>
                <mxCell id="54" value="" style="shape=tableRow;horizontal=0;startSize=0;swimlaneHead=0;swimlaneBody=0;fillColor=none;collapsible=0;dropTarget=0;points=[[0,0.5],[1,0.5]];portConstraint=eastwest;top=0;left=0;right=0;bottom=0;" parent="50" vertex="1">
                    <mxGeometry y="60" width="210" height="30" as="geometry"/>
                </mxCell>
                <mxCell id="55" value="" style="shape=partialRectangle;connectable=0;fillColor=none;top=0;left=0;bottom=0;right=0;editable=1;overflow=hidden;" parent="54" vertex="1">
                    <mxGeometry width="30" height="30" as="geometry">
                        <mxRectangle width="30" height="30" as="alternateBounds"/>
                    </mxGeometry>
                </mxCell>
                <mxCell id="56" value="episode_id BIGINT" style="shape=partialRectangle;connectable=0;fillColor=none;top=0;left=0;bottom=0;right=0;align=left;spacingLeft=6;overflow=hidden;" parent="54" vertex="1">
                    <mxGeometry x="30" width="180" height="30" as="geometry">
                        <mxRectangle width="180" height="30" as="alternateBounds"/>
                    </mxGeometry>
                </mxCell>
                <mxCell id="57" value="" style="shape=tableRow;horizontal=0;startSize=0;swimlaneHead=0;swimlaneBody=0;fillColor=none;collapsible=0;dropTarget=0;points=[[0,0.5],[1,0.5]];portConstraint=eastwest;top=0;left=0;right=0;bottom=0;" parent="50" vertex="1">
                    <mxGeometry y="90" width="210" height="30" as="geometry"/>
                </mxCell>
                <mxCell id="58" value="" style="shape=partialRectangle;connectable=0;fillColor=none;top=0;left=0;bottom=0;right=0;editable=1;overflow=hidden;" parent="57" vertex="1">
                    <mxGeometry width="30" height="30" as="geometry">
                        <mxRectangle width="30" height="30" as="alternateBounds"/>
                    </mxGeometry>
                </mxCell>
                <mxCell id="59" value="total_reviews INT" style="shape=partialRectangle;connectable=0;fillColor=none;top=0;left=0;bottom=0;right=0;align=left;spacingLeft=6;overflow=hidden;" parent="57" vertex="1">
                    <mxGeometry x="30" width="180" height="30" as="geometry">
                        <mxRectangle width="180" height="30" as="alternateBounds"/>
                    </mxGeometry>
                </mxCell>
                <mxCell id="60" value="" style="shape=tableRow;horizontal=0;startSize=0;swimlaneHead=0;swimlaneBody=0;fillColor=none;collapsible=0;dropTarget=0;points=[[0,0.5],[1,0.5]];portConstraint=eastwest;top=0;left=0;right=0;bottom=0;" parent="50" vertex="1">
                    <mxGeometry y="120" width="210" height="30" as="geometry"/>
                </mxCell>
                <mxCell id="61" value="" style="shape=partialRectangle;connectable=0;fillColor=none;top=0;left=0;bottom=0;right=0;editable=1;overflow=hidden;" parent="60" vertex="1">
                    <mxGeometry width="30" height="30" as="geometry">
                        <mxRectangle width="30" height="30" as="alternateBounds"/>
                    </mxGeometry>
                </mxCell>
                <mxCell id="62" value="ratings DECIMAL(2,1)" style="shape=partialRectangle;connectable=0;fillColor=none;top=0;left=0;bottom=0;right=0;align=left;spacingLeft=6;overflow=hidden;" parent="60" vertex="1">
                    <mxGeometry x="30" width="180" height="30" as="geometry">
                        <mxRectangle width="180" height="30" as="alternateBounds"/>
                    </mxGeometry>
                </mxCell>
                <mxCell id="63" value="" style="shape=tableRow;horizontal=0;startSize=0;swimlaneHead=0;swimlaneBody=0;fillColor=none;collapsible=0;dropTarget=0;points=[[0,0.5],[1,0.5]];portConstraint=eastwest;top=0;left=0;right=0;bottom=0;" parent="50" vertex="1">
                    <mxGeometry y="150" width="210" height="30" as="geometry"/>
                </mxCell>
                <mxCell id="64" value="" style="shape=partialRectangle;connectable=0;fillColor=none;top=0;left=0;bottom=0;right=0;editable=1;overflow=hidden;" parent="63" vertex="1">
                    <mxGeometry width="30" height="30" as="geometry">
                        <mxRectangle width="30" height="30" as="alternateBounds"/>
                    </mxGeometry>
                </mxCell>
                <mxCell id="65" value="created_at TIMESTAMP" style="shape=partialRectangle;connectable=0;fillColor=none;top=0;left=0;bottom=0;right=0;align=left;spacingLeft=6;overflow=hidden;" parent="63" vertex="1">
                    <mxGeometry x="30" width="180" height="30" as="geometry">
                        <mxRectangle width="180" height="30" as="alternateBounds"/>
                    </mxGeometry>
                </mxCell>
                <mxCell id="66" value="" style="shape=tableRow;horizontal=0;startSize=0;swimlaneHead=0;swimlaneBody=0;fillColor=none;collapsible=0;dropTarget=0;points=[[0,0.5],[1,0.5]];portConstraint=eastwest;top=0;left=0;right=0;bottom=0;" parent="50" vertex="1">
                    <mxGeometry y="180" width="210" height="30" as="geometry"/>
                </mxCell>
                <mxCell id="67" value="" style="shape=partialRectangle;connectable=0;fillColor=none;top=0;left=0;bottom=0;right=0;editable=1;overflow=hidden;" parent="66" vertex="1">
                    <mxGeometry width="30" height="30" as="geometry">
                        <mxRectangle width="30" height="30" as="alternateBounds"/>
                    </mxGeometry>
                </mxCell>
                <mxCell id="68" value="updated_at TIMESTAMP" style="shape=partialRectangle;connectable=0;fillColor=none;top=0;left=0;bottom=0;right=0;align=left;spacingLeft=6;overflow=hidden;" parent="66" vertex="1">
                    <mxGeometry x="30" width="180" height="30" as="geometry">
                        <mxRectangle width="180" height="30" as="alternateBounds"/>
                    </mxGeometry>
                </mxCell>
                <mxCell id="69" style="edgeStyle=none;html=1;entryX=0;entryY=0.5;entryDx=0;entryDy=0;startArrow=ERoneToMany;startFill=0;endArrow=ERmandOne;endFill=0;exitX=1;exitY=0.5;exitDx=0;exitDy=0;" parent="1" source="44" target="54" edge="1">
                    <mxGeometry relative="1" as="geometry">
                        <Array as="points">
                            <mxPoint x="550" y="125"/>
                        </Array>
                    </mxGeometry>
                </mxCell>
            </root>
        </mxGraphModel>
    </diagram>
</mxfile>